<svg width="24" height="20" viewBox="0 0 24 20" fill="none" xmlns="http://www.w3.org/2000/svg">
<path opacity="0.9" d="M13.7086 0C8.02286 0 3.42857 4.47778 3.42857 10H0L4.45143 14.3278L4.53143 14.4889L9.14286 10H5.71429C5.71429 5.70556 9.29714 2.22222 13.7143 2.22222C18.1314 2.22222 21.7143 5.70556 21.7143 10C21.7143 14.2944 18.1314 17.7778 13.7143 17.7778C11.5029 17.7778 9.50857 16.9 8.06286 15.4944L6.44571 17.0667C8.30286 18.8778 10.8686 20 13.7086 20C19.3943 20 24 15.5222 24 10C24 4.47778 19.3943 0 13.7086 0ZM12.5714 5.55556V11.1111L17.4629 13.9333L18.2857 12.5833L14.2857 10.2778V5.55556H12.5714Z" fill="#888DA6"/>
</svg>
